<svg xmlns="http://www.w3.org/2000/svg" width="870" height="10" viewBox="0 0 870 10"><g><g><path fill="#00cbff" d="M852.02 10.005l-.494-.482.026-.025-8.227-8.019L835.612 9l.539.524-.494.482-.54-.525-.538.525-.494-.482.539-.525-7.714-7.519-8.226 8.02.026.024-.494.482-.026-.025-.026.025-.494-.482.025-.025-8.226-8.019-8.226 8.02.026.024-.494.482-.026-.025-.026.025-.494-.482.025-.025-8.226-8.019-8.226 8.02.025.024-.493.482-.026-.025-.026.025-.494-.482.025-.025-8.226-8.019-8.226 8.02.025.024-.493.482-.026-.025-.026.025-.494-.482.025-.025-8.226-8.019-8.226 8.02.025.024-.494.482-.025-.025-.026.025-.494-.482.025-.025-8.226-8.019L731.992 9l.538.524-.494.482-.539-.525-.538.525-.494-.482.538-.525-7.713-7.519-8.226 8.02.025.024-.494.482-.026-.025-.025.025-.494-.482.025-.025-8.226-8.019-8.747 8.526-.487-.475-.487.475-8.746-8.526-8.226 8.02.025.024-.494.482-.026-.025-.026.025-.493-.482.025-.025-8.226-8.019L662.228 9l.538.524-.494.482-.539-.525-.539.525-.494-.482.54-.525-7.714-7.519L645.3 9.5l.025.024-.494.482-.026-.025-.026.025-.494-.482.026-.025-8.226-8.019-8.227 8.02.026.024-.494.482-.026-.025-.026.025-.494-.482.026-.025-8.226-8.019-8.227 8.02.026.024-.494.482-.026-.025-.026.025-.494-.482.026-.025-8.226-8.019-8.227 8.02.026.024-.494.482-.026-.025-.026.025-.494-.482.026-.025-8.226-8.019-8.227 8.02.026.024-.494.482-.026-.025-.026.025-.494-.482.026-.025-8.226-8.019L558.607 9l.539.524-.494.482-.539-.525-.539.525-.494-.482.539-.525-7.713-7.519-8.227 8.02.026.024-.494.482-.026-.025-.026.025-.494-.482.026-.025-8.227-8.019-8.746 8.526-.494-.482 8.747-8.525-.54-.525.495-.482.538.525.54-.525.493.482-.539.525 8.227 8.019 8.227-8.02-.54-.524.495-.482.539.525.538-.525.494.482-.538.525 7.713 7.519 7.714-7.519-.54-.525.495-.482.539.525.539-.525.493.482-.538.525 8.226 8.019 8.227-8.019-.54-.525.495-.482.539.525.539-.525.494.482-.54.525 8.227 8.019L600.71.998l-.54-.525.495-.482.539.525.539-.525.494.482-.54.525 8.227 8.019 8.227-8.02-.539-.524.494-.482.539.525.539-.525.494.482-.54.525 8.227 8.019 8.227-8.02-.539-.524.494-.482.539.525.539-.525.494.482-.54.525 8.227 8.019 8.227-8.02-.539-.524.494-.482.539.525.539-.525.494.482-.54.525 7.714 7.519 7.714-7.52-.539-.524.494-.482.539.525.539-.525.494.482-.54.525 8.227 8.019 8.227-8.02-.539-.524.494-.482.539.525.539-.525.494.482-.54.525 8.74 8.519 8.74-8.52-.539-.524.494-.482.539.525.539-.525.494.482-.54.525 8.228 8.019 8.226-8.019-.539-.525.494-.482.54.525.538-.525.494.482-.539.525 7.714 7.519L739.21.998l-.539-.525.494-.482.54.525.538-.525.494.482-.539.525 8.227 8.019 8.226-8.02-.539-.524.494-.482.54.525.538-.525.494.482-.539.525 8.227 8.019 8.226-8.02-.539-.524.494-.482.54.525.538-.525.494.482-.539.525 8.227 8.019 8.226-8.02-.538-.524.493-.482.54.525.538-.525.494.482-.539.525 8.227 8.019 8.226-8.02-.538-.524.493-.482.54.525.538-.525.494.482-.539.525 8.227 8.019 8.226-8.02-.538-.524.494-.482.538.525.54-.525.493.482-.539.525 7.714 7.519 7.714-7.519-.54-.525.495-.482.539.526.538-.526.494.482-.539.525 8.227 8.019 8.227-8.019-.54-.525.495-.482.539.526.538-.526.494.482-.539.525 8.747 8.525-.494.482-8.746-8.526-8.227 8.02.026.024-.494.482-.026-.025zm-347.795 0l-.494-.482.026-.025-8.226-8.019L487.817 9l.539.524-.494.482-.539-.525-.539.525-.494-.482.539-.525-7.714-7.519-8.226 8.02.026.024-.494.482-.026-.025-.026.025-.494-.482.026-.025-8.227-8.019-8.226 8.02.026.024-.494.482-.026-.025-.026.025-.494-.482.026-.025-8.227-8.019-8.226 8.02.026.024-.494.482-.026-.025-.026.025-.494-.482.026-.025-8.227-8.019-8.226 8.02.026.024-.494.482-.026-.025-.026.025-.494-.482.026-.025-8.227-8.019-8.226 8.02.026.024-.494.482-.026-.025-.026.025-.494-.482.026-.025-8.227-8.019L384.197 9l.539.524-.494.482-.54-.525-.538.525-.494-.482.538-.525-7.713-7.519-8.226 8.02.025.024-.493.482-.026-.025-.026.025-.494-.482.025-.025-8.226-8.019-8.746 8.526-.494-.482L357.56.998l-.539-.525.494-.482.54.525.538-.525.494.482-.539.525 8.227 8.019L375 .997l-.539-.524.494-.482.54.525.538-.525.494.482-.539.525 7.714 7.519 7.713-7.52-.539-.524.494-.482.54.525.538-.525.494.482-.539.525 8.227 8.019 8.226-8.019-.538-.525.493-.482.54.526.538-.526.494.482-.539.525 8.227 8.019 8.226-8.019-.538-.525.493-.482.54.525.538-.525.494.482-.539.525 8.227 8.019 8.226-8.019-.538-.525.493-.482.54.525.538-.525.494.482-.539.525 8.227 8.019L461.18.998l-.538-.525.493-.482.54.525.538-.525.494.482-.539.525 8.227 8.019 8.227-8.02-.54-.524.495-.482.538.525.54-.525.493.482-.539.525 7.714 7.519 7.714-7.52-.54-.524.495-.482.539.525.538-.525.494.482-.538.525 8.226 8.019 8.227-8.02-.54-.524.495-.482.539.525.538-.525.494.482-.538.525 8.746 8.525-.494.482-8.746-8.526-8.227 8.02.026.024-.494.482-.026-.025zm-174.41 0l-.494-.482.025-.025-8.226-8.019L313.407 9l.538.524-.494.482-.538-.525-.54.525-.493-.482.538-.525-7.713-7.519-8.226 8.02.025.024-.494.482-.025-.025-.026.025-.494-.482.025-.025-8.226-8.019-8.226 8.02.025.024-.494.482-.026-.025-.025.025-.494-.482.025-.025-8.226-8.019-8.226 8.02.025.024-.494.482-.026-.025-.025.025-.494-.482.025-.025-8.226-8.019-8.226 8.02.025.024-.494.482-.026-.025-.026.025-.493-.482.025-.025-8.226-8.019-8.226 8.02.025.024-.494.482-.026-.025-.026.025-.493-.482.025-.025L217.5 1.48 209.787 9l.538.524-.494.482-.539-.525-.539.525-.494-.482.54-.525-7.714-7.519-8.227 8.02.026.024-.494.482-.026-.025-.026.025-.494-.482.026-.025-8.226-8.019-8.747 8.526-.494-.482L183.15.998l-.539-.525.494-.482.539.525.539-.525.494.482-.54.525 8.227 8.019 8.227-8.02-.539-.524.494-.482.539.525.539-.525.494.482-.54.525 7.714 7.519 7.714-7.52-.539-.524.494-.482.539.525.539-.525.494.482-.54.525 8.227 8.019 8.227-8.02-.539-.524.494-.482.539.525.539-.525.494.482-.54.525 8.227 8.019 8.227-8.02-.539-.524.494-.482.539.525.539-.525.494.482-.54.525 8.228 8.019 8.226-8.019-.539-.525.494-.482.539.525.539-.525.494.482-.539.525 8.227 8.019L286.77.998l-.539-.525.494-.482.54.525.538-.525.494.482-.539.525 8.227 8.019L304.21.998l-.539-.525.494-.482.54.525.538-.525.494.482-.539.525 7.714 7.519 7.713-7.52-.539-.524.494-.482.54.525.538-.525.494.482-.539.525 8.227 8.019 8.226-8.02-.539-.524.494-.482.54.525.538-.525.494.482-.539.525 8.747 8.525-.494.482-8.747-8.526-8.226 8.02.026.024-.494.482-.026-.025zm-174.41 0l-.495-.482.026-.025-8.226-8.019L138.996 9l.539.524-.494.482-.539-.525-.539.525-.494-.482.539-.525-7.713-7.519-8.227 8.02.026.024-.494.482-.026-.025-.026.025-.494-.482.026-.025-8.226-8.019-8.227 8.02.026.024-.494.482-.026-.025-.026.025-.494-.482.026-.025-8.226-8.019-8.227 8.02.026.024-.494.482-.026-.025-.026.025-.494-.482.026-.025-8.226-8.019-8.227 8.02.026.024-.494.482-.026-.025-.026.025-.494-.482.026-.025L60.53 1.48 52.304 9.5l.026.024-.494.482-.026-.025-.026.025-.494-.482.026-.025-8.227-8.019L35.376 9l.539.524-.494.482-.54-.525-.538.525-.494-.482.539-.525-7.714-7.519-8.226 8.02.026.024-.494.482-.026-.025-.026.025-.494-.482.026-.025L9.233 1.48.487 10.005l-.494-.482L8.739.998 8.201.473l.493-.482.54.525.538-.525.494.482-.539.525 8.227 8.019L26.18.998l-.538-.525.493-.482.54.525.538-.525.494.482-.539.525 7.714 7.519 7.714-7.52-.54-.524.495-.482.538.525.54-.525.493.482-.539.525 8.227 8.019 8.227-8.02-.54-.524.495-.482.539.525.538-.525.494.482-.539.525 8.227 8.019 8.227-8.02-.54-.524.495-.482.539.525.538-.525.494.482-.538.525 8.226 8.019L94.92.997l-.54-.524.495-.482.539.525.538-.525.494.482-.538.525 8.226 8.019 8.227-8.02-.54-.524.495-.482.539.525.539-.525.494.482-.54.525 8.227 8.019 8.227-8.02-.54-.524.495-.482.539.525.539-.525.494.482-.54.525 7.714 7.519 7.714-7.52-.539-.524.494-.482.539.525.539-.525.494.482-.54.525 8.227 8.018 8.227-8.018-.539-.525.494-.482.539.525.539-.525.494.482-.54.525 8.747 8.525-.494.482-8.746-8.526-8.226 8.02.025.024-.494.482-.026-.025z"/></g></g></svg>